<?xml version="1.0" ?><svg id="Layer_1" style="enable-background:new 0 0 74 74;" version="1.1" viewBox="0 0 74 74" xml:space="preserve" xmlns="http://www.w3.org/2000/svg" xmlns:xlink="http://www.w3.org/1999/xlink"><style type="text/css">
	.st0{fill:#2B3033;}
</style><g><path class="st0" d="M59,1H15c-3.8,0-6.9,3.1-6.9,6.9v58.2c0,3.8,3.1,6.9,6.9,6.9H59c3.8,0,6.9-3.1,6.9-6.9V7.9   C65.9,4.1,62.9,1,59,1z M61.9,66.1c0,1.6-1.3,2.9-2.9,2.9H15c-1.6,0-2.9-1.3-2.9-2.9V7.9C12.1,6.3,13.4,5,15,5H59   c1.6,0,2.9,1.3,2.9,2.9V66.1z"/><path class="st0" d="M22.3,35.8c0.5,0,1-0.2,1.4-0.6l7.8-7.8l4,4c0.8,0.8,2,0.8,2.8,0L49.7,20v3.6c0,1.1,0.9,2,2,2s2-0.9,2-2v-8.4   c0-1.1-0.9-2-2-2h-8.4c-1.1,0-2,0.9-2,2s0.9,2,2,2h3.6l-10,10l-4-4c-0.8-0.8-2-0.8-2.8,0l-9.2,9.2c-0.8,0.8-0.8,2,0,2.8   C21.2,35.7,21.8,35.8,22.3,35.8z"/><path class="st0" d="M52.4,46.5H21.6c-1.1,0-2,0.9-2,2s0.9,2,2,2h30.9c1.1,0,2-0.9,2-2S53.5,46.5,52.4,46.5z"/><path class="st0" d="M52.4,57.5H21.6c-1.1,0-2,0.9-2,2s0.9,2,2,2h30.9c1.1,0,2-0.9,2-2S53.5,57.5,52.4,57.5z"/></g></svg>